Coordinates
version=1
nRows=7
nColumns=33
inDegrees=yes

Units are S.I. units (second, meters, Newtons, ...)
Angles are in degrees.

endheader
time	ground_thorax_rot_x	ground_thorax_rot_y	ground_thorax_rot_z	ground_thorax_tx	ground_thorax_ty	ground_thorax_tz	clav_prot_r	clav_elev_r	scapula_abduction_r	scapula_elevation_r	scapula_upward_rot_r	scapula_winging_r	shoulder_elv_r	plane_of_elev_r	axial_rot_r	elbow_flexion_r	pro_sup_r	wrist_flex_r	wrist_dev_r	clav_prot_l	clav_elev_l	scapula_abduction_l	scapula_elevation_l	scapula_upward_rot_l	scapula_winging_l	shoulder_elv_l	plane_of_elev_l	axial_rot_l	elbow_flexion_l	pro_sup_l	wrist_flex_l	wrist_dev_l
     10.07000000	    -39.70180719	     -9.48766843	      9.65652347	    -96.41372425	    796.60836142	     -5.64676905	     -0.03021162	    -45.00000000	     45.00000000	    -45.00000000	     11.41644602	  -2631.82659356	  -2096.31317982	     19.89024877	   -179.99999979	   1803.90485320	    -67.82919524	     17.11927354	      9.50152713	     19.07486309	     40.42181954	    -41.99449463	    -45.00000000	    -45.00000000	   1156.58009063	  -1539.12331880	    136.09858293	   -179.99999979	   1086.01179585	     27.85610640	     11.28041857	    -20.03386563
     10.08000000	    -39.63716187	     -9.81334578	      9.75917439	   -102.34762740	    796.44896798	     -6.03277735	      0.60301445	    -45.00000000	     45.00000000	    -45.00000000	     10.14148978	  -2631.87900417	  -2096.14470118	     19.88236756	   -179.99999979	   1803.93860067	    -65.82119547	     17.33348759	      9.43466812	     18.61717873	     40.22193054	    -41.19359965	    -45.00000000	    -45.00000000	   1156.66036553	  -1539.18385968	    136.14219247	   -179.99999979	   1086.05794836	     29.04526710	     11.40965882	    -20.24803988
     10.09000000	    -39.65165344	    -10.00787724	      9.71380071	   -108.29321648	    796.41338578	     -6.41245911	      0.98281561	    -45.00000000	     45.00000000	    -45.00000000	      9.11836126	  -2632.06875243	  -2096.08167056	     19.88691834	   -179.99999979	   1803.95774449	    -63.73447671	     17.52723331	      9.38348669	     18.36516007	     40.00669658	    -40.61532331	    -45.00000000	    -45.00000000	   1156.74804798	  -1539.30274077	    136.30533530	   -179.99999979	   1086.16469064	     30.52632971	     11.51684522	    -20.52536943
     10.10000000	    -39.61428407	    -10.19232171	      9.70742579	   -114.22533232	    796.50209728	     -6.77645819	      1.22694536	    -45.00000000	     45.00000000	    -45.00000000	      8.88073113	  -2632.38332715	  -2095.68615889	     19.78679662	   -179.99999979	   1804.13814332	    -62.05995368	     17.52348464	      9.49750067	     18.05106607	     39.86875482	    -40.00643244	    -45.00000000	    -45.00000000	   1156.61556663	  -1539.42352279	    136.63349489	   -179.99999979	   1086.25541237	     32.04467684	     11.39215835	    -20.74829387
     10.11000000	    -39.64056696	    -10.25193040	      9.47292361	   -120.13407315	    796.74946366	     -7.14647653	      1.48825218	    -45.00000000	     45.00000000	    -45.00000000	      8.14544563	  -2632.55351125	  -2095.57380026	     19.73202546	   -179.99999979	   1804.09949835	    -60.44643517	     17.80371922	      9.40698704	     17.45841836	     39.82341981	    -39.39499357	    -45.00000000	    -45.00000000	   1156.89383414	  -1539.46341308	    136.49556480	   -179.99999979	   1086.40038542	     33.63742036	     11.45885266	    -21.00677235
     10.12000000	    -39.62212890	    -10.52823804	      9.63745899	   -125.96845681	    797.17145528	     -7.50488483	      1.83104259	    -45.00000000	     44.64959247	    -45.00000000	      6.63585212	  -2632.51425141	  -2095.49504069	     19.74689539	   -179.99999979	   1804.18355967	    -58.41724095	     17.90112756	      9.43431510	     17.45730719	     39.54797266	    -38.70443332	    -45.00000000	    -45.00000000	   1156.81468251	  -1539.49317494	    136.73203597	   -179.99999979	   1086.47859072	     35.20852035	     11.46413715	    -21.29997457
     10.13000000	    -39.61556500	    -10.81629473	      9.92850371	   -131.68882821	    797.76684607	     -7.84356462	      1.91813206	    -45.00000000	     43.34956297	    -45.00000000	      3.96958892	  -2631.81525462	  -2095.58314615	     19.81422908	   -179.99999979	   1804.21146083	    -56.56773547	     18.14874166	      9.31777181	     17.18834337	     39.37997242	    -38.11344117	    -45.00000000	    -45.00000000	   1156.87142984	  -1539.62860862	    136.93039540	   -179.99999979	   1086.50913535	     36.88329797	     11.57091872	    -21.63802894
